

The phenomenal success of Stephenie Meyer’s Twilight Saga has brought hundreds of thousands of fans to the lush landscapes of Forks, Washington to experience first-hand the settings of their favorite romantic epic. Now, an all-new DVD, DESTINATION FORKS, allows viewers to embark on this thrilling and emotional journey from the comfort of their own living rooms—anywhere in the world.
Released: Wednesday, 16 February 2011
Audio: Dolby Digital 2.0 Stereo
Aspect Ratio: 1.78:1 16:9 Enhanced
Transfer Format: Widescreen
Category: Documentary
Region: 4
Format: DVD
Distributor: Sony Pictures
Rating: G
Languages: English
Running Time: 82 mins

Format : AVI
Format/Info : Audio Video Interleave
File size : 700 MiB
Duration : 1h 21mn
Overall bit rate : 1 198 Kbps
Writing application : VirtualDubMod 1.5.10.2 (build 2540/release)
Writing library : VirtualDubMod build 2540/release

Video
ID : 0
Format : MPEG-4 Visual
Format profile : Advanced Simple@L5
Format settings, BVOP : Yes
Format settings, QPel : No
Format settings, GMC : No warppoints
Format settings, Matrix : Default (H.263)
Codec ID : XVID
Codec ID/Hint : XviD
Duration : 1h 21mn
Bit rate : 1 057 Kbps
Width : 624 pixels
Height : 352 pixels
Display aspect ratio : 16:9
Frame rate : 25.000 fps
Color space : YUV
Chroma subsampling : 4:2:0
Bit depth : 8 bits
Scan type : Progressive
Bits/(Pixel*Frame) : 0.192
Stream size : 617 MiB (88%)
Writing library : XviD 1.2.1 (UTC 2008-12-04)

Audio
ID : 1
Format : MPEG Audio
Format version : Version 1
Format profile : Layer 3
Mode : Joint stereo
Mode extension : MS Stereo
Codec ID : 55
Codec ID/Hint : MP3
Duration : 1h 21mn
Bit rate mode : Variable
Bit rate : 128 Kbps
Channel(s) : 2 channels
Sampling rate : 48.0 KHz
Stream size : 74.8 MiB (11%)
Alignment : Aligned on interleaves
Interleave, duration : 24 ms (0.60 video frame)
Interleave, preload duration : 143 ms
Writing library : LAME3.90.
Encoding settings : -m j -V 4 -q 2 -lowpass 17.6 --abr 128